<?xml version="1.0" encoding="utf-8"?>
<!-- Generator: Adobe Illustrator 29.8.1, SVG Export Plug-In . SVG Version: 9.03 Build 0)  -->
<svg version="1.0" id="Layer_1" xmlns="http://www.w3.org/2000/svg" xmlns:xlink="http://www.w3.org/1999/xlink" x="0px" y="0px"
	 viewBox="0 0 1250.04 343.66" enable-background="new 0 0 1250.04 343.66" xml:space="preserve">
<path fill="#FBF2B3" d="M403.11,17.96L845.16,5.23c23.08-0.67,42.34,17.51,43,40.59l2.41,83.6c0.67,23.08-17.51,42.34-40.59,43
	l-442.05,12.73c-23.08,0.66-42.34-17.51-43-40.6l-2.41-83.6C361.85,37.87,380.03,18.62,403.11,17.96z"/>
<g>
	<g transform="translate(570.723076, 414.630758)">
		<g>
			<path fill="#5E17EB" d="M-147.3-353.25c-3.76,0.33-8.52,0.35-10.56,2.19c-0.43,0.45-1.94,2.05-1.83,5.7
				c0.04,1.55,0.31,3.09,0.35,4.64c0.04,1.32,0.07,2.65,0.11,3.98c0.03,1.22,0.48,5.19,0.49,5.74c0.15,1.21,0.16,1.66,0.29,2.2
				c0.03,1.11,0.05,1.66,0.07,2.43l0.4,9.84c0.3,6.64,0.02,12.18-0.03,14.51c0.03,1.1-0.05,2.1,0.09,3.2
				c0.19,2.66,0.41,2.65,0.47,4.86c0.06,1.99,0.17,5.97-0.08,8.64l-0.17,1.89c-0.17,1.78,0.75,2.85,1.43,3.5
				c1.02,0.97,1.58,1.17,3.68,1.11l1.33-0.04c0.89-0.03,1.76-0.38,2.98-0.42c0.11-0.01,0.33-0.01,0.44-0.02
				c3.65,0.01,4.33,0.43,6.43,0.26l5.64-0.39c1.22-0.03,2.33,0.16,3.77,0.11c0.11-0.01,0.33-0.01,0.44-0.01
				c1.33-0.04,1.88-0.28,2.52-0.85c0.76-0.69,1.18-1.36,1.36-2.92c-0.01-0.22-0.02-0.55-0.03-0.78c-0.01-0.33-0.12-0.55-0.24-0.88
				s-0.13-0.66-0.25-0.99l-0.36-1.2c-0.24-0.66-0.24-0.77-0.28-1.88c-0.04-1.33,0.12-3.44,2.55-3.51c2.1-0.06,4.39,2.2,6.64,3.79
				c2.48,1.7,9.14,5.94,11.38,6.87c1.46,0.62,3.69,1.33,9.11,1.18l7.85-0.22c1.88-0.06,3.08-0.76,3.72-1.55
				c0.96-1.14,1.04-2.47,0.99-3.8c-0.12-4.2-0.8-0.75-0.59-5.3l0.15-2.66c-0.02-0.67-0.04-1.33,0.05-1.99
				c-0.01-0.33,0.09-0.78,0.08-1.11c-0.02-0.67-0.04-1.33-0.06-1.99c-0.04-1.32-0.2-2.98-1.44-4.05c-0.68-0.54-2.03-1.05-3.35-1.01
				c-3.43,0.1-0.65,0.57-6.07,0.73c-0.89,0.03-3.1-0.14-4.01-0.77c-0.79-0.64-0.92-1.08-0.93-1.53c-0.02-0.66,0.41-1.23,0.74-1.35
				l2.61-1.4c1.64-0.82,4.8-2.57,6.16-5.27l2.09-4.05c2.1-4.05,2.37-10.03,2.32-11.58c-0.03-1.11-0.68-4.52-1.39-6.16
				c-0.36-0.88-0.94-1.74-1.52-2.61c-0.7-1.08-1.29-2.29-1.87-3.38c-1.16-1.96-2.67-4.24-5.17-6.39c-3.52-2.99-6.54-4.02-7.88-4.42
				c-2.12-0.6-6.91-1.57-11.11-1.56c-0.78,0.02-1.55,0.05-2.32,0.07c-1.33,0.04-2.77,0.19-4.09,0.12c-1.89-0.06-2.78-0.36-5.1-0.3
				c-2.77,0.08-4.74,0.69-7.29,0.76c-2.1,0.06-4.2,0.23-6.31-0.04c-0.89-0.09-1.77-0.06-2.66-0.04L-147.3-353.25z M-130.17-327.18
				c-0.02-0.66,0.08-0.89,0.83-2.02c0.43-0.56,0.97-1.02,2.96-1.08c1.21-0.04,1.56,0.29,2.33,0.38l3.77,0.22
				c0.55-0.02,1.46,0.62,1.8,0.83c1.47,1.06,2.29,2.59,2.33,4.14c0.1,3.65-2.95,5.06-4.27,5.66c-2.08,0.83-4.83,1.47-6.27,1.51
				c-0.55,0.02-1.67-0.18-2.12-0.49c-0.45-0.32-0.81-1.08-0.93-1.52c-0.01-0.33-0.02-0.55-0.03-0.89c-0.01-0.22-0.12-0.44-0.13-0.66
				c-0.25-0.99-0.17-1.88-0.19-2.88L-130.17-327.18z"/>
		</g>
	</g>
</g>
<g>
	<g transform="translate(628.212844, 412.975768)">
		<g>
			<path fill="#5E17EB" d="M-139.91-339.85c0.02,0.44,0.08,2.77,0.09,3.21c-0.01,3.55-0.39,2.11-0.25,6.65
				c0.13,4.54,0.51,6.07,0.7,9.17c0.33,3.86-0.31,0.9,0.59,8.95c0.28,1.98,0.36,4.86,0.41,6.52c0.05,1.66-0.23,3.33-0.18,5.32
				l0.02,12.18c0.03,0.89,0.05,1.77-0.03,2.66c0.02,0.55-0.08,1-0.07,1.55c0.06,2.1,0.53,2.86,1.32,3.51
				c1.02,0.85,1.92,1.16,3.69,1.11c0.22-0.01,0.33-0.01,0.55-0.02c6.08-0.28,5.07-0.59,8.72-0.69l9.19-0.15
				c1.55-0.05,5.31-0.16,7.18-0.32c1-0.03,2.1-0.17,3.1-0.09c1.44,0.07,3.11,0.35,4.88,0.3c0.55-0.02,1.1-0.15,1.66-0.16
				c0.78-0.02,1.55-0.04,2.43-0.18c3.65-0.21,0.43-0.45,3.64-0.55l1.66-0.05c1.32-0.04,0.34,0.21,3.21,0.24
				c0.89-0.03,1.67,0.06,2.55-0.07c3.53-0.32,4.93-1.91,4.1-11.41l-0.17-2.1c-0.19-2.65,0.11-0.11,0.01-3.43
				c-0.03-1.1-0.33-3.86-2.26-5.47c-1.02-0.85-2.13-0.93-3.23-0.9c-0.33,0.01-0.78,0.02-1.1,0.03c-0.56,0.02-1.21,0.15-1.77,0.16
				c-0.66,0.02-1.33,0.04-1.99,0.06l-2.66,0.08c-2.1,0.06-4.53,0.24-6.3,0.4c-1.21,0.15-2.86,0.42-4.86,0.47
				c-1.21,0.03-2.66-0.04-3.79-0.89c-0.91-0.64-1.15-1.52-1.17-2.07c-0.02-0.44,0.3-1.11,0.62-1.57c0.32-0.34,1.08-1.03,2.29-1.06
				c0.33-0.01,0.78,0.09,1.11,0.08c0.78,0.09,1.44-0.04,2.21-0.06l5.09-0.04c4.65-0.03,4.31-0.46,9.06-0.7
				c0.77-0.03,1.44-0.04,2.21-0.07c1.22-0.03,1.77-0.27,2.41-0.95c0.76-0.69,1.07-1.36,1.02-3.13c-0.03-0.89-0.16-1.54-0.29-2.2
				c-0.26-1.21-0.16-1.55-0.17-2.21l-0.4-6.08c-0.02-0.55-0.16-1.66-0.97-2.96c-0.93-1.41-2.59-1.47-4.03-1.43
				c-1.66,0.05-3.42,0.43-5.08,0.48c-1.88,0.05-3.88,0-5.75,0.17c-1.66,0.16-1.88,0.27-2.98,0.42c-0.66,0.02-1.22,0.04-1.88,0.05
				c-1.88,0.06-3.98,0.22-5.22-0.62c-0.79-0.53-0.92-1.3-0.94-2.07c-0.07-2.55,1.8-2.82,3.13-2.86c1.44-0.04,2.77,0.14,4.21,0.1
				c1.66-0.05,3.41-0.65,5.08-0.48l1.44,0.18c1.67,0.17,2.55,0.15,3.21,0.13c0.11-0.01,0.22-0.01,0.33-0.01
				c0.55-0.02,1.1-0.15,1.66-0.16c0.22-0.01,0.55-0.02,0.78-0.02c1.1-0.03,2.22,0.16,3.32,0.12c1.88-0.05,2.53-0.52,3.17-1.31
				c0.64-0.79,1.16-1.92,1.1-4.02c-0.12-4.2-0.49-1.65-0.59-5.08l-0.07-2.43c-0.04-1.33-0.05-1.66-0.06-1.99
				c-0.02-0.78,0.07-1.55,0.05-2.33c-0.03-1.1-0.31-2.98-2.11-4.26c-0.68-0.43-1.69-0.95-4.12-0.88c-2.32,0.07-0.43,0.23-5.63,0.49
				c-0.66,0.02-1.33,0.04-1.99,0.06c-1.55,0.05-3.2,0.31-4.75,0.36c-1.55,0.04-3.21-0.02-4.76,0.03c-0.44,0.01-0.89,0.03-1.33,0.04
				c-0.99,0.03-1.89-0.06-2.88-0.03c-0.66,0.02-1.44,0.04-2.1,0.06c-1.44,0.04-2.88-0.03-4.32,0.01c-3.1,0.09-5.97,0.4-8.62,0.47
				c-1.88,0.06-3.78-0.44-5.66-0.39c-0.44,0.02-3.65,0.1-5.48,1.82c-1.08,1.03-2.02,3.05-1.84,5.48L-139.91-339.85z"/>
		</g>
	</g>
</g>
<g>
	<g transform="translate(676.909091, 411.573922)">
		<g>
			<path fill="#5E17EB" d="M-123.26-337.45c0.18,2.54-0.08,4.98-0.01,7.53c0.07,2.66,0.26,5.2,0.33,7.85
				c0.14,4.65-0.17,1.67-0.08,8.53c0.01,0.22,0.01,0.44,0.02,0.66c0.33,7.63,0.7,4.96,0.8,8.5c0,0.11,0.01,0.33,0.01,0.44
				c0.02,0.67,0.04,1.44-0.05,2.1c-0.07,1.44-0.26,2.78-0.21,4.21l0.28,5.75c0.07,2.32-0.04,2.55-0.11,3.88
				c-0.08,0.99-0.23,3.44-0.21,4.1c0.03,0.99,0.17,2.1,1.19,3.07c1.26,1.18,2.69,1.25,3.47,1.23c0.78-0.03,1.44-0.04,2.21-0.18
				c0.89-0.14,1.77-0.27,2.65-0.3l2.98-0.08c0.33-0.01,0.67,0.09,1,0.08c0.67,0.09,1.44,0.18,2.11,0.16
				c0.89-0.03,1.88-0.17,2.76-0.3c0.89-0.14,1.77-0.16,2.66-0.19c1.32-0.04,2.55,0.04,3.87,0c1.89-0.05,3.2-0.42,4.28-1.34
				c0.65-0.46,1.07-1.14,1.15-2.47c-0.01-0.22-0.01-0.33-0.02-0.55c-0.27-1.54-0.5-2.09-0.64-2.86l-0.26-1.43
				c-0.14-0.99-0.18-2.32-0.19-2.77c-0.02-0.77,0.05-2.32,1.9-3.38c1.2-0.7,2.63-0.85,3.85-0.78l1.77,0.06
				c2.44,0.04,8.18-0.57,11.03-1.31c7.47-2.1,11.69-5.54,13.73-7.7l4.3-4.55c0.21-0.23,2.79-3.18,3.57-6.74
				c0.68-3.34,0.63-5,0.9-7.22c0.18-1.55,0.47-2.89,0.32-4.44l-0.46-4.3c-0.29-2.21-1.33-3.84-1.81-5.04l-0.95-2.3
				c-0.48-1.2-2.08-2.93-2.31-3.15c-0.69-0.76-2.28-2.15-7.82-6.19c-3.28-2.45-3.95-2.55-10.86-4.23c-2.23-0.49-2.79-0.8-5.9-1.27
				c-2.45-0.37-5.45-0.95-13.53-0.71c-2.54,0.07-4.97,0.36-7.52,0.44c-0.99,0.03-1.99,0.06-2.98,0.08
				c-0.99,0.03-2.21,0.18-3.86,0.33c-1.44,0.15-2.32,0.29-3.2,0.31c-1.66,0.05-3.33-0.23-5.1-0.18c-1.1,0.03-2.98,0.08-4.39,1.34
				c-0.97,0.91-1.8,2.93-1.75,4.59c0.03,0.89,0.53,2.97,0.7,5.07L-123.26-337.45z M-87.1-331.07c2.78,0.36,5.24,1.29,6.61,2.69
				c0.91,0.97,1.27,1.84,1.31,3.06c0.04,1.44-0.26,2.67-1.22,3.8c-1.61,1.71-3.71,1.77-5.26,2.15c-1.32,0.26-3.4,0.98-5.06,1.03
				c-0.89,0.03-2.44-0.15-3.12-0.8c-0.45-0.32-0.81-0.97-0.84-2.08c-0.03-1.1,0.16-2.11,0.13-3.21c-0.04-1.22-0.29-2.43-0.1-3.54
				c0.19-1.22,0.19-1.11,0.51-1.67c0.53-0.79,0.84-1.46,4.49-1.57C-88.77-331.24-87.99-331.15-87.1-331.07z"/>
		</g>
	</g>
</g>
<g>
	<g transform="translate(733.901122, 409.933261)">
		<g>
			<path fill="#5E17EB" d="M-76.77-355.84c-5.62,1.05-11.07,3.86-12.7,4.8c-2.07,1.17-4.22,3.33-7.89,6.87
				c-3.23,3.08-2.83,1.52-6.67,10.48c-1.14,2.69-2,3.6-2.33,7.48c-0.69,6.89-0.92,10.32-0.84,13.2c0.12,4.09,0.72,5.63,1.57,8.26
				c2.32,7.35-1.16,2.14,9.15,14.02c2.63,3.03,7.27,6.32,11.08,7.98c3.59,1.56,10.72,3.34,23.44,2.98
				c2.66-0.08,8.16-1.12,11.23-2.09c1.76-0.6,3.39-1.43,5.15-2.03c1.09-0.36,2.3-0.73,3.29-1.2c1.64-0.82,8.9-6.34,10.07-7.59
				c2.58-2.73,3.26-6.29,4.8-10.21c2.18-5.16,2.59-5.94,2.61-9.27c-0.03-1.1-0.06-2.21,0.02-3.32c0.06-1.89,0.44-3.89,0.39-5.77
				c-0.14-4.97-1.96-10.68-3.38-13.74c-2.12-4.59-5.55-8.14-8.76-11.81c-1.83-2.05-2.52-2.7-6.88-4.34
				c-7.83-2.98-11.54-4.76-14.76-5.22c-1.33-0.18-7.77-0.66-9.76-0.6C-68.84-356.95-71.16-356.88-76.77-355.84z M-78.8-322.57
				c0.41-1.12,1.46-3.03,2.43-3.94c0.97-0.91,2.4-1.29,3.49-1.87c1.09-0.59,2.5-1.52,3.38-1.87c0.66-0.24,1.87-0.39,2.43-0.4
				c2.43-0.07,6.79,1.35,8.92,2.4c1.24,0.63,2.6,1.7,3.77,3.77c0.69,1.08,1.76,3.6,1.83,5.92c0.03,1.11-0.25,2.78-0.98,4.23
				c-0.73,1.35-3.41,4.53-4.49,5.56c-1.94,1.94-3.71,1.77-5.59,1.93c-1.21,0.15-2.98,0.42-4.2,0.45c-2.77,0.08-4.45-0.76-5.57-1.39
				c-2.36-1.37-2.37-1.48-5.49-6.04c-0.34-0.43-1.04-1.52-1.11-4.18C-80.03-318.87-79.22-321.56-78.8-322.57z"/>
		</g>
	</g>
</g>
<g>
	<g transform="translate(797.861616, 408.091995)">
		<g>
			<path fill="#5E17EB" d="M-71.59-355.43c-3.76,0.33-8.52,0.35-10.56,2.19c-0.43,0.45-1.94,2.05-1.83,5.7
				c0.04,1.55,0.31,3.09,0.35,4.64c0.04,1.32,0.07,2.65,0.11,3.98c0.03,1.22,0.48,5.19,0.49,5.74c0.15,1.21,0.16,1.66,0.29,2.2
				c0.03,1.11,0.05,1.66,0.07,2.43l0.4,9.84c0.3,6.64,0.02,12.18-0.03,14.51c0.03,1.1-0.05,2.1,0.09,3.2
				c0.19,2.66,0.41,2.65,0.47,4.86c0.06,1.99,0.17,5.97-0.08,8.64l-0.17,1.89c-0.17,1.78,0.75,2.85,1.43,3.5
				c1.02,0.97,1.58,1.17,3.68,1.11l1.33-0.04c0.89-0.03,1.76-0.38,2.98-0.42c0.11-0.01,0.33-0.01,0.44-0.02
				c3.65,0.01,4.33,0.43,6.43,0.26l5.64-0.39c1.22-0.03,2.33,0.16,3.77,0.11c0.11-0.01,0.33-0.01,0.44-0.01
				c1.33-0.04,1.88-0.28,2.52-0.85c0.76-0.69,1.18-1.36,1.36-2.92c-0.01-0.22-0.02-0.55-0.03-0.78c-0.01-0.33-0.12-0.55-0.24-0.88
				c-0.12-0.33-0.13-0.66-0.25-0.99l-0.36-1.2c-0.24-0.66-0.24-0.77-0.28-1.88c-0.04-1.33,0.12-3.44,2.55-3.51
				c2.1-0.06,4.39,2.2,6.64,3.79c2.48,1.7,9.14,5.94,11.38,6.87c1.46,0.62,3.69,1.33,9.11,1.18l7.85-0.22
				c1.88-0.06,3.08-0.76,3.72-1.55c0.96-1.14,1.04-2.47,0.99-3.8c-0.12-4.2-0.8-0.75-0.59-5.3l0.15-2.66
				c-0.02-0.67-0.04-1.33,0.05-1.99c-0.01-0.33,0.09-0.78,0.08-1.11c-0.02-0.67-0.04-1.33-0.06-1.99c-0.04-1.32-0.2-2.98-1.44-4.05
				c-0.68-0.54-2.03-1.05-3.35-1.01c-3.43,0.1-0.65,0.57-6.07,0.73c-0.89,0.03-3.1-0.14-4.01-0.77c-0.79-0.64-0.92-1.08-0.93-1.53
				c-0.02-0.66,0.41-1.23,0.74-1.35l2.61-1.4c1.64-0.82,4.8-2.57,6.16-5.27l2.09-4.05c2.1-4.05,2.37-10.03,2.32-11.58
				c-0.03-1.11-0.68-4.52-1.39-6.16c-0.36-0.88-0.94-1.74-1.52-2.61c-0.7-1.08-1.29-2.29-1.87-3.38c-1.16-1.96-2.67-4.24-5.17-6.39
				c-3.52-2.99-6.54-4.02-7.88-4.42c-2.12-0.6-6.91-1.57-11.11-1.56c-0.78,0.02-1.55,0.05-2.32,0.07c-1.33,0.04-2.77,0.19-4.09,0.12
				c-1.89-0.06-2.78-0.36-5.1-0.3c-2.77,0.08-4.74,0.69-7.29,0.76c-2.1,0.06-4.2,0.23-6.31-0.04c-0.89-0.09-1.77-0.06-2.66-0.04
				L-71.59-355.43z M-54.45-329.36c-0.02-0.66,0.08-0.89,0.83-2.02c0.43-0.56,0.97-1.02,2.96-1.08c1.21-0.04,1.56,0.29,2.33,0.38
				l3.77,0.22c0.55-0.02,1.46,0.62,1.8,0.83c1.47,1.06,2.29,2.59,2.33,4.14c0.1,3.65-2.95,5.06-4.27,5.66
				c-2.08,0.83-4.83,1.47-6.27,1.51c-0.55,0.02-1.67-0.18-2.12-0.49c-0.45-0.32-0.81-1.08-0.93-1.52c-0.01-0.33-0.02-0.55-0.03-0.89
				c-0.01-0.22-0.12-0.44-0.13-0.66c-0.25-0.99-0.17-1.88-0.19-2.88L-54.45-329.36z"/>
		</g>
	</g>
</g>
<g>
	<g transform="translate(855.351361, 406.437006)">
		<g>
			<path fill="#5E17EB" d="M-68.72-337.47c-0.04,2.43,0.54,3.3,0.88,3.73c1.04,1.41,1.82,1.61,6.47,1.92l2.55,0.15
				c1.11,0.08,2.21-0.06,3.24,0.9c0.91,0.75,1.73,2.5,1.67,4.38l-0.11,7.42c0.03,1.22,0.26,1.43,0.32,3.65
				c0.03,0.89,0.06,1.88-0.19,4.88c-0.37,6.32,0.06,5.76,0.11,7.53l0.29,6.19c0.35,8.3-0.22,3.77-0.04,10.08
				c0.03,0.89,0.06,1.88,1.42,3.28c1.14,1.18,2.26,1.59,4.58,1.53c2.21-0.06,1.32-0.15,3.98-0.22l4.76-0.14
				c3.98-0.11,5.1,0.07,7.2,0.01c4.31-0.12,4.75-0.35,6.15-1.95c1.07-1.24,1.38-1.92,1.33-3.8c-0.03-1.1-0.28-1.87-0.41-2.53
				c-0.25-0.99-0.51-2.31-0.55-3.75l-0.3-10.51c-0.14-4.76-0.35-8.29,0.01-11.4c0.09-0.67,0.17-1.78,0.14-2.99
				c-0.03-1.1-0.27-1.54-0.37-5.08c-0.1-3.54-0.06-5.98,1.78-7.47c1.3-1.04,3.39-1.43,5.16-1.48c1.99-0.06,1.89,0.28,4.21,0.21
				c1.55-0.05,2.42-0.52,2.85-0.86c1.19-1.14,1.16-2.24,1.14-2.91c-0.07-2.32-0.35-4.53-0.53-6.85c-0.03-0.99-0.17-1.88-0.08-2.88
				c0.07-1.22,0.34-3.44,0.29-5.43c-0.04-1.33-0.42-2.98-1.77-3.82c-1.24-0.85-3.92-1.33-6.68-1.25c-8.29,0.24-4.96,0.81-10.6,0.86
				l-15.17,0.1c-3.76,0-3.64,0.33-7.73,0.45l-1.88,0.05c-0.44,0.02-1.11,0.03-3.33-0.12c-1.66-0.06-3.55-0.34-5.32-0.29
				c-0.67,0.02-3.32,0.1-4.61,1.35c-1.08,0.92-1.36,2.81-1.31,4.35c0.02,0.66,0.2,2.98,0.33,3.97c0.12,0.44,0.13,0.66,0.15,1.1
				l0.06,2.1L-68.72-337.47z"/>
		</g>
	</g>
</g>
<g>
	<g transform="translate(898.583323, 405.192464)">
	</g>
</g>
<path fill="#EB2030" d="M60.96,139.55l1138.42,29.59c11.08,0.29,21.6,4.97,29.24,13.01c7.64,8.04,11.76,18.79,11.47,29.88
	l-2.17,83.6c-0.29,11.08-4.97,21.6-13.02,29.24c-8.04,7.64-18.79,11.77-29.88,11.47L56.61,306.75c-23.09-0.6-41.32-19.8-40.71-42.89
	l2.17-83.6C18.67,157.17,37.87,138.94,60.96,139.55z"/>
<g>
	<g transform="translate(309.251562, 505.929182)">
		<g>
			<path fill="#FAF1B3" d="M-243.05-303.54c0.02,3.77-0.45,4.64-0.77,12.49c-0.05,1.77-0.09,3.43-0.14,5.2
				c-0.16,10.4,0.55,4.33,0.33,12.74l-0.14,5.42c-0.12,4.65-0.1,7.97-0.61,10.61c-0.12,0.55-0.26,1.32-0.29,2.65
				c-0.28,2.2,0.68,3.56,1.33,4.35c1.51,1.59,3.93,2.21,8.24,2.32c1.33,0.04,2.89-0.15,4.32-0.11c1.55-0.07,2.21-0.05,3.1-0.03
				l2.32,0.06c4.09,0.11,5.64,0.37,9.84,0.48c11.84,0.31,17.64-1.31,27.38-5.6c3.36-1.46,11.09-5.03,15.82-16.74
				c1.65-4.06,2.58-9.9,2.69-14.21c0.1-3.98-0.52-9.86-2.09-13.22c-0.83-1.91-6.71-10.03-8.54-11.96c-2.91-3.06-5.88-4.03-8.28-5.2
				c-3.28-1.64-3.92-2.65-6.43-3.82c-2.3-1.06-4.83-1.57-9.46-2.35c-3.64-0.54-11.93-1.09-16.35-1.2c-6.97-0.18-4.44,0.55-9.09,0.32
				l-7.07-0.41c-1.88-0.16-3.57,0.91-4.14,1.44c-1.69,1.4-1.88,4.27-1.92,5.6L-243.05-303.54z M-215.46-287.32
				c-0.08-1.11-0.03-3.43,1.46-5.28c0.57-0.76,1.25-1.29,2.91-1.25c1.21,0.03,2.2,0.28,3.53,0.54c0.77,0.13,0.99,0.14,1.33,0.14
				c2.77,0.07,4.5,1.45,5.47,2.36c1.84,1.82,2.67,3.72,2.59,6.93c-0.04,1.44-0.28,2.32-0.53,3.31c-0.97,3.19-3.22,4.46-4.33,4.76
				c-0.22,0.1-0.55,0.09-0.78,0.2c-0.11-0.01-0.11-0.01-0.22-0.01c-0.11,0.1-0.45,0.21-0.67,0.31c-0.45,0.1-0.78,0.09-1.11,0.19
				c-0.66-0.02-1.44-0.04-2.44,0.27c-0.45,0.1-1.79,0.51-3.45,0.69c-0.11-0.01-0.33-0.01-0.44-0.01c-0.99-0.14-1.87-0.38-2.4-1.28
				c-0.74-1.12-0.81-2.9-0.79-3.67c0.01-0.33,0.02-0.56,0.03-0.89c0.02-0.55,0.14-1.1,0.15-1.66c0.02-0.55-0.08-1-0.07-1.55
				L-215.46-287.32z"/>
		</g>
	</g>
</g>
<g>
	<g transform="translate(368.902798, 507.47987)">
		<g>
			<path fill="#FAF1B3" d="M-222.82-307.88c-0.03,1.1,0.06,1.77,0.02,3.54c-0.04,1.33-0.18,2.54-0.21,3.87
				c-0.03,1.1-0.06,2.1-0.08,3.21l-0.3,11.61c-0.16,6.3,0.49,6.43,0.04,11.29c-0.16,1.99-0.44,4.19-0.49,6.3l-0.11,4.2
				c-0.08,3.1,0.12,3.77-0.05,6.31c-0.16,1.88-0.42,3.31-0.46,4.97c-0.05,1.99,0.15,2.99,0.9,3.79c1.18,1.25,3.6,1.76,5.16,1.69
				l7.53-0.14l5.31,0.14c0.44,0.01,0.99,0.14,1.43,0.15c0.56,0.02,1.22,0.04,1.77,0.05c0.67,0.02,1.44,0.15,2.1,0.17
				c0.99,0.03,2.66,0.07,4.12-1.11c1.24-0.96,1.51-2.73,1.65-3.61c0.01-0.33,0.02-0.67,0.03-1c-0.07-1.44-0.11,0-0.37-2.78
				c-0.17-1.99-0.36-3.22-0.33-4.43c0.04-1.66,0.31-3.32,0.46-4.97c0.02-0.77,0.04-1.55,0.06-2.32c0.01-0.22,0.01-0.44,0.02-0.66
				c0.12-4.54-0.24-3.33-0.16-6.76l0.25-9.52c0.04-1.44,0.18-2.65,0.31-3.42c0.14-0.89,0.45-4.53,0.48-5.74
				c0.1-3.98-0.45-8.2-0.27-10.97l0.32-3.76c0.02-0.77,0.27-1.76,0.31-3.53c0.02-0.55,0.04-1.22,0.05-1.77
				c0.06-2.1,0.12-4.76-2.04-6.58c-2.17-1.72-5.93-1.7-8.59-1.55l-2.11,0.17c-0.67,0.09-3.1,0.25-4.65,0.21
				c-3.1-0.08-4.41-0.67-6.73-0.72c-2.1-0.06-3,0.36-3.79,1.11c-1.14,1.08-1.72,2.28-1.66,4.28L-222.82-307.88z"/>
		</g>
	</g>
</g>
<g>
	<g transform="translate(397.940254, 508.234725)">
		<g>
			<path fill="#FAF1B3" d="M-149.21-309.84c0.17-2.54,0.34-4.86-0.6-6.77c-1.36-2.91-5.66-3.69-8.88-3.66l-2.77,0.04
				c-1.44,0.07-2.22,0.05-5.2-0.03c-1.77-0.05-3.43-0.2-5.2-0.24c-10.18-0.27-14.4,0.51-17.97,1.41c-9.03,2.2-11.5,3.8-14.68,6.82
				c-6.24,5.81-8.42,8.53-9.97,13.14c-0.96,2.96-1.36,5.72-1.65,8.15c-0.14,0.99-0.16,1.88-0.3,2.87c-0.27,1.77-0.76,3.64-0.8,5.41
				c-0.04,1.55,0.27,6.76,0.67,8.32c0.2,0.67,1.75,5.03,3.54,8.72c1.37,2.69,4.23,7.53,6.4,9.24c0.54,0.46,1.53,1.04,3.91,2.98
				c2.49,1.84,3.69,2.97,4.67,3.56c3.81,2.53,12.41,3.64,17.83,3.89c3.42,0.2,4.2,0,6.08,0.05c3.32,0.08,2.65,0.29,4.98,0.24
				l7.09-0.26c1.66-0.07,2.54,0.4,4.74,0.57c0.89,0.13,1.66,0.04,2.55,0.06c1.66,0.05,2.88-0.03,4.35-1.21
				c2.26-1.93,2.55-4.47,2.6-6.46l0.02-4.87c0.01-4.65,0.33-8.52,0.2-11.95c0.02-0.56-0.08-1.11-0.07-1.67
				c0.02-0.66,0.04-1.32,0.05-1.99l0.07-2.77c0.01-0.55,0.14-1.1,0.15-1.66c0.15-1.21,0.28-2.32,0.31-3.53
				c0.1-3.77-0.86-4.9-2.17-6.04c-1.08-0.91-1.84-1.6-3.94-1.65c-2.54-0.07-5.09,0.09-7.64,0.02c-0.89-0.02-1.77-0.16-2.66-0.18
				l-4.86-0.24c-0.55-0.02-1.1-0.14-1.66-0.15c-0.88-0.14-1.76-0.27-2.65-0.29c-0.22-0.01-0.55-0.02-0.78-0.02
				c-0.11-0.01-0.33-0.01-0.44-0.01c-2.54-0.07-2.78,0.37-3.45,0.91c-0.79,0.64-1.46,0.62-1.43,3.84l0.04,2.55
				c0.06,1.99-0.17,2.43-0.21,3.76c0,0.11-0.01,0.22-0.01,0.33c-0.01,0.33-0.13,0.77-0.14,1.1c-0.01,0.11-0.01,0.33-0.02,0.44
				c0,0.11,0,0.11-0.01,0.22c-0.02,0.78,0.31,1.11,0.52,1.34c0.97,1.02,1.85,1.16,2.07,1.16l3.1,0.08c0.55,0.02,0.77,0.13,1.2,0.7
				c0.21,0.22,0.32,0.45,0.31,0.89c-0.01,0.33-0.14,1.1-0.7,1.53c-1.02,0.75-2.23,0.83-2.9,0.81c-4.53-0.12-6.71-1.51-7.9-2.53
				c-4.01-3.54-4.7-6.77-4.62-9.53c0.03-1.1,0.3-3.09,0.67-4.41c0.73-2.31,2.09-3.71,3.67-4.89c3.16-2.47,6.3-3.82,9.84-3.73
				c1.33,0.04,2.43,0.29,4.42,0.45c2.98,0.3,3.76,0.1,6.74,0.29l5.97,0.38c1.33,0.03,4.76,0.01,6.01-1.06
				c1.36-1.18,1.4-2.84,1.42-3.73c0.08-3.21-0.32-4.55-0.29-5.76L-149.21-309.84z"/>
		</g>
	</g>
</g>
<g>
	<g transform="translate(453.775134, 509.686203)">
		<g>
			<path fill="#FAF1B3" d="M-194.53-307.14c-0.03,1.1,0.06,1.77,0.02,3.54c-0.04,1.33-0.18,2.54-0.21,3.87
				c-0.03,1.1-0.06,2.1-0.08,3.21l-0.3,11.61c-0.16,6.3,0.49,6.43,0.04,11.29c-0.16,1.99-0.44,4.19-0.49,6.3l-0.11,4.2
				c-0.08,3.1,0.12,3.77-0.05,6.31c-0.16,1.88-0.42,3.31-0.46,4.97c-0.05,1.99,0.15,2.99,0.9,3.79c1.18,1.25,3.6,1.76,5.16,1.69
				l7.53-0.14l5.31,0.14c0.44,0.01,0.99,0.14,1.43,0.15c0.56,0.02,1.22,0.04,1.77,0.05c0.67,0.02,1.44,0.15,2.1,0.17
				c0.99,0.03,2.66,0.07,4.12-1.11c1.24-0.96,1.51-2.73,1.65-3.61c0.01-0.33,0.02-0.67,0.03-1c-0.07-1.44-0.11,0-0.37-2.78
				c-0.17-1.99-0.36-3.22-0.33-4.43c0.04-1.66,0.31-3.32,0.46-4.97c0.02-0.77,0.04-1.55,0.06-2.32c0.01-0.22,0.01-0.44,0.02-0.66
				c0.12-4.54-0.24-3.33-0.16-6.76l0.25-9.52c0.04-1.44,0.18-2.65,0.31-3.42c0.14-0.89,0.45-4.53,0.48-5.74
				c0.1-3.98-0.45-8.2-0.27-10.97l0.32-3.76c0.02-0.77,0.27-1.76,0.31-3.53c0.02-0.55,0.04-1.22,0.05-1.77
				c0.06-2.1,0.12-4.76-2.04-6.58c-2.17-1.72-5.93-1.7-8.59-1.55l-2.11,0.17c-0.67,0.09-3.1,0.25-4.65,0.21
				c-3.1-0.08-4.41-0.67-6.73-0.72c-2.1-0.06-3,0.36-3.79,1.11c-1.14,1.08-1.72,2.28-1.66,4.28L-194.53-307.14z"/>
		</g>
	</g>
</g>
<g>
	<g transform="translate(482.81259, 510.441058)">
		<g>
			<path fill="#FAF1B3" d="M-189.83-302.82c-0.17,2.43,0.36,3.33,0.68,3.78c0.96,1.47,1.73,1.71,6.36,2.27l2.54,0.29
				c1.1,0.14,2.21,0.06,3.18,1.08c0.86,0.8,1.59,2.59,1.43,4.47l-0.52,7.4c-0.03,1.22,0.18,1.44,0.12,3.66
				c-0.02,0.89-0.05,1.88-0.46,4.86c-0.72,6.29-0.26,5.75-0.31,7.52l-0.05,6.2c-0.1,8.3-0.43,3.75-0.59,10.06
				c-0.03,0.89-0.05,1.88,1.24,3.35c1.07,1.24,2.17,1.71,4.49,1.78c2.21,0.06,1.33-0.08,3.99-0.01l4.76,0.12
				c3.98,0.1,5.08,0.35,7.18,0.41c4.32,0.11,4.77-0.1,6.24-1.61c1.14-1.19,1.48-1.84,1.53-3.72c0.03-1.11-0.17-1.89-0.27-2.55
				c-0.19-1.01-0.38-2.34-0.34-3.78l0.28-10.51c0.12-4.76,0.1-8.3,0.62-11.39c0.13-0.66,0.27-1.76,0.3-2.98
				c0.03-1.1-0.18-1.55-0.09-5.09c0.09-3.54,0.27-5.97,2.18-7.36c1.35-0.96,3.46-1.24,5.23-1.19c1.99,0.05,1.87,0.38,4.19,0.44
				c1.55,0.04,2.45-0.38,2.9-0.7c1.24-1.07,1.28-2.18,1.29-2.84c0.06-2.32-0.1-4.54-0.15-6.86c0.03-1-0.06-1.89,0.07-2.88
				c0.14-1.21,0.53-3.42,0.58-5.41c0.04-1.33-0.26-2.99-1.56-3.92c-1.19-0.92-3.83-1.54-6.6-1.61c-8.3-0.21-4.99,0.54-10.64,0.28
				l-15.15-0.72c-3.76-0.21-3.66,0.12-7.75,0.02l-1.88-0.05c-0.44-0.01-1.11-0.03-3.31-0.31c-1.66-0.15-3.53-0.53-5.3-0.58
				c-0.66-0.02-3.32-0.09-4.68,1.09c-1.12,0.86-1.51,2.73-1.55,4.28c-0.02,0.67,0.03,2.99,0.11,3.99c0.1,0.45,0.09,0.67,0.08,1.11
				l-0.05,2.1L-189.83-302.82z"/>
		</g>
	</g>
</g>
<g>
	<g transform="translate(522.635273, 511.476284)">
		<g>
			<path fill="#FAF1B3" d="M-165.27-297.75c-2.26,5.81-2.07,7.25-2.82,10.66c-0.62,2.76-1.58,5.49-2.78,9.01
				c-1.31,3.73-1.32,4.06-2.04,6.15c-0.35,0.88-1.06,2.63-1.67,4.49c-1.43,4.06-1.93,6.26-2.3,7.58c-0.61,2.2-1.07,2.85-1.55,4.05
				c-0.36,0.99-0.61,2.09-0.64,3.19c-0.06,2.44,0.67,4.01,1.54,4.8c1.83,1.82,5.05,1.46,7.59,1.64l6.52,0.39l2.32,0.06
				c4.43,0.11,1.45-0.3,5.2-0.09c0.56,0.02,1.1,0.14,1.66,0.05c0.56-0.1,1.67-0.51,2.13-0.94c0.45-0.32,0.69-0.98,1.73-2.72
				l1.85-3.05c0.11-0.1,0.23-0.32,0.34-0.43c0.11-0.11,0.12-0.22,0.23-0.33c0.69-0.86,2.02-0.94,3.02-0.92
				c0.66,0.02,0.99,0.14,3.31,0.31l3.76,0.32c2.98,0.3,5.55-0.74,8.18,0.33c1.86,0.71,2.39,1.94,3.02,3.29l0.83,1.9
				c0.94,2.24,2.25,2.94,3.02,3.18c1.32,0.36,4.32-0.11,8.96,0.12l6.75,0.29c0.44,0.01,0.77,0.02,1.21,0.03
				c0.44,0.01,0.89,0.14,1.32,0.15c0.33,0.01,0.56,0.02,0.89,0.02c3.1-0.03,3.79-0.79,4.36-1.77c0.81-1.2,0.7-1.42,0.72-2.31
				c0.01-0.22,0.02-0.55,0.02-0.78c0.01-0.44-0.28-1.89-0.69-3.11c-0.32-0.67-0.52-1.23-0.83-2.35c-0.2-0.67-0.41-1.22-0.51-1.78
				c-0.9-3.57-1.25-7.23-2.38-10.8l-0.61-2.01c-1.11-3.79-1.42-5.02-2-8.24c-1.17-6.01-1.37-6.9-1.57-7.68l-0.41-1.23
				c-0.61-1.9-0.41-1.45-0.82-2.35c-0.11-0.22-0.21-0.45-0.32-0.67c-0.09-0.56-0.2-0.78-0.69-3.23l-0.99-4.45
				c-0.49-2.22-1.32-4.46-2.15-6.58c-0.52-1.34-1.04-2.8-1.33-4.24l-0.5-2.22c-0.7-2.9-1.3-5.46-3.25-6.95
				c-2.06-1.6-4.93-1.9-6.37-1.94c-1.1-0.03-2.32,0.05-3.43,0.02c-1.44-0.04-5.42-0.14-7.19-0.3l-1.88-0.16l-3.43-0.2
				c-0.89-0.02-1.66,0.07-2.55,0.04c-0.78-0.02-1.66,0.07-2.44,0.05c-4.66,0.21-0.44-0.23-6.2-0.16c-2.21,0.05-4.09,0.11-5.67,1.18
				c-2.03,1.39-3.09,4.02-3.34,4.79c-1.43,4.06-2.8,9.67-3.62,11.86L-165.27-297.75z M-141.01-277.42
				c-0.66-0.02-1.54-0.15-2.07-1.05c-0.32-0.56-0.29-1.56-0.28-1.89c0.02-0.89,0.47-1.21,0.96-3.19c0.37-1.32,0.51-2.53,0.87-3.63
				c0.36-1.09,0.84-2.3,1.44-4.06c0.24-0.88,0.6-2.09,1.17-2.52c0.11-0.11,0.68-0.54,1.34-0.52c0.44,0.02,0.99,0.14,1.43,0.59
				c0.43,0.45,0.96,1.46,1.16,2.02c0.31,1.01,1.71,6.69,1.9,7.8l0.59,2.9c0.2,0.89,0.4,1.78-0.29,2.65
				c-0.69,0.76-1.69,1.06-5.56,0.96L-141.01-277.42z"/>
		</g>
	</g>
</g>
<g>
	<g transform="translate(580.793148, 512.988151)">
		<g>
			<path fill="#FAF1B3" d="M-153.59-256.38c-0.02,0.55-0.14,1.21-0.16,1.77c-0.13,0.66-0.15,1.43-0.17,2.1
				c-0.18,6.97,4.58,7.09,6.9,7.27c0.44,0.01,0.89,0.02,1.33,0.03c1.22-0.08,2.44-0.38,5.21-0.31c0.33,0.01,0.67,0.02,1,0.03
				c0.66,0.02,1.44,0.04,2.1,0.06c0.89,0.02,1.77,0.05,2.66,0.07c1.44,0.04,2.98,0.19,4.42,0.22c5.97,0.16,7.97-0.01,12.84,0.01
				c0.44,0.01,0.89,0.02,1.33,0.03c1.33,0.04,1.88,0.38,4.75,0.46c3.87,0.1,5.61-2.84,5.7-6.49c0.05-2.1-0.22-4.1-0.17-6.2
				c0.08-2.99,0.27-5.86,0.45-8.84c0.01-0.44,0.02-0.89,0.03-1.33c-0.04-2.55-1.51-5.69-3.83-5.74c-1.22-0.03-2.33,0.16-3.55,0.13
				c-0.89-0.03-1.76-0.38-2.76-0.41c-2.55-0.07-3.88,0.23-5.21,0.2c-4.43-0.11-4.64-4.66-4.59-6.43c0.04-1.66,0.19-3.2,0.24-4.86
				c0.01-0.55,0.03-1.1,0.04-1.66c0.03-0.99-0.06-1.99-0.03-2.99c0.01-0.33,0.02-0.67,0.03-0.99c0.09-3.76,0.23-4.65,0.48-5.74
				c0.15-1.55,0.17-2.21,0.26-5.75c0.04-1.66,0.08-3.32,0.13-4.98c0.03-1.1,0.06-2.21,0.08-3.32c0.02-0.66,0.04-1.33,0.05-1.99
				c-0.02-3.54-0.59-7.1-8-7.29c-0.44-0.02-0.89-0.03-3.1,0.14c-2.44,0.05-1.45,0.29-3.44,0.24c-1.44-0.04-3.86-0.43-6.85-0.51
				c-6.42-0.17-6.92,2.15-7.23,14.2c-0.07,2.66,0.08,5.32,0.02,7.97c-0.02,0.67-0.04,1.33-0.05,1.99c-0.06,2.43-0.46,4.86-0.52,7.29
				c-0.02,0.55-0.03,1.1-0.05,1.66c-0.04,1.55-0.19,3.09-0.23,4.64c-0.02,0.78-0.04,1.44-0.06,2.21c-0.06,6.75,0.42,5.21,0.27,10.96
				L-153.59-256.38z"/>
		</g>
	</g>
</g>
<g>
	<g transform="translate(620.36704, 514.01691)">
	</g>
</g>
<g>
	<g transform="translate(639.697704, 514.519428)">
		<g>
			<path fill="#FAF1B3" d="M-132.55-305.53c-0.03,1.1,0.06,1.77,0.02,3.54c-0.04,1.33-0.18,2.54-0.21,3.87
				c-0.03,1.1-0.06,2.1-0.08,3.21l-0.3,11.61c-0.16,6.3,0.49,6.43,0.04,11.29c-0.16,1.99-0.44,4.19-0.49,6.3l-0.11,4.2
				c-0.08,3.1,0.12,3.77-0.05,6.31c-0.16,1.88-0.42,3.31-0.46,4.97c-0.05,1.99,0.15,2.99,0.9,3.79c1.18,1.25,3.6,1.76,5.16,1.69
				l7.53-0.14l5.31,0.14c0.44,0.01,0.99,0.14,1.43,0.15c0.56,0.02,1.22,0.04,1.77,0.05c0.67,0.02,1.44,0.15,2.1,0.17
				c0.99,0.03,2.66,0.07,4.12-1.11c1.24-0.96,1.51-2.73,1.65-3.61c0.01-0.33,0.02-0.67,0.03-1c-0.07-1.44-0.11,0-0.37-2.78
				c-0.17-1.99-0.36-3.22-0.33-4.43c0.04-1.66,0.31-3.32,0.46-4.97c0.02-0.77,0.04-1.55,0.06-2.32c0.01-0.22,0.01-0.44,0.02-0.66
				c0.12-4.54-0.24-3.33-0.16-6.76l0.25-9.52c0.04-1.44,0.18-2.65,0.31-3.42c0.14-0.89,0.45-4.53,0.48-5.74
				c0.1-3.98-0.45-8.2-0.27-10.97l0.32-3.76c0.02-0.77,0.27-1.76,0.31-3.53c0.02-0.55,0.04-1.22,0.05-1.77
				c0.06-2.1,0.12-4.76-2.04-6.58c-2.17-1.72-5.93-1.7-8.59-1.55l-2.11,0.17c-0.67,0.09-3.1,0.25-4.65,0.21
				c-3.1-0.08-4.41-0.67-6.73-0.72c-2.1-0.06-3,0.36-3.79,1.11c-1.14,1.08-1.72,2.28-1.66,4.28L-132.55-305.53z"/>
		</g>
	</g>
</g>
<g>
	<g transform="translate(668.735171, 515.274283)">
		<g>
			<path fill="#FAF1B3" d="M-122.65-292.77c-0.71,10.17-0.77,12.49-0.84,15.26l-0.22,12.51c-0.11,4.43-0.56,8.73-1.11,13.15
				c-0.12,0.55-0.14,1.21-0.16,1.77c-0.04,1.55,0.37,2.89,1.01,3.68c0.54,0.68,1.73,1.48,3.28,1.53l8.74,0.11
				c2.21,0.06,2.32,0.28,11.28,0.52c2.1,0.06,2.88-0.15,3.79-0.9c0.68-0.54,1.14-1.19,1.18-2.62c0.02-0.67-0.08-1.22-0.17-1.89
				c-0.09-0.78-0.18-1.66-0.16-2.44c0.01-0.11,0.01-0.33,0.02-0.78l0.05-1.99l0.16-1.77c0.18-2.43,0.19-2.98,0.19-3.21l-0.13-3.32
				c-0.15-2.99,0.32-3.86,0.44-4.19c0.47-0.98,0.92-1.31,1.36-1.3c0.55,0.02,1.43,0.48,1.85,0.94c0.76,0.68,0.85,1.35,1.71,2.48
				l0.75,1.02c1.82,2.48,0.51,1.56,3.3,4.95c2.58,3.06,2.24,3.05,3.41,4.96c2.87,4.72,3.3,5.07,3.84,5.63
				c1.83,1.93,2.68,3.61,4.42,4.66c0.98,0.58,1.97,0.71,5.18,0.8l0.89,0.03c1.33,0.03,2.33-0.05,4.32-0.11
				c1.55-0.07,2.21-0.05,3.21-0.03l2.1,0.05c0.55,0.02,0.88,0.14,1.77,0.27c1.1,0.03,1.43,0.15,1.98,0.17c0.11,0,0.11,0,0.22,0.01
				c0.78,0.02,1.55-0.07,3.01-0.92c0.91-0.75,1.48-1.73,1.63-2.94c0.01-0.22,0.01-0.56,0.02-0.78c0.01-0.11,0.01-0.22,0.01-0.33
				c0.03-1.1-0.28-2-0.35-3.55l-0.05-2.32c0.01-0.11,0.01-0.11,0.01-0.22c0.05-1.99,0.1-3.98,0.16-5.97
				c0.09-3.54,0.41-7.07,0.5-10.61c0.01-0.22,0.01-0.33,0.01-0.56c0.03-0.89-0.06-1.99-0.09-5.09c-0.15-2.88-0.23-3.66-0.21-4.66
				c0.06-2.43,0.39-2.31,0.59-5.85c0.02-0.66,0.03-1.22,0.05-1.88c0.03-0.89,0.16-1.88,0.18-2.77c0.05-1.66-0.12-3.54-0.08-5.42
				c0.02-0.78,0.04-1.55,0.06-2.32c0.28-6.64,0.95-6.73,0.94-10.71c0.05-1.88-0.11-3.99-1.62-5.58c-1.29-1.36-2.94-1.85-5.26-1.91
				c-0.44-0.02-0.78-0.02-1.22-0.04c-0.99-0.03-1.77-0.04-3.98,0.01l-1.78,0.06c-0.22-0.01-0.55-0.02-1.77-0.05
				c-0.56-0.01-1.1-0.14-1.66-0.15c-1.22-0.14-2.54-0.29-3.76-0.32l-1.88-0.05c-1.32-0.03-2.67,0.38-3.11,0.58
				c-0.89,0.31-2.58,1.48-2.77,4.36c-0.01,0.22-0.02,0.55-0.02,0.77c-0.03,1.22,0.24,3.22,0.19,5.21l-0.16,6.31
				c-0.02,0.55-0.14,1.21-0.05,1.77c-0.01,0.22,0.1,0.55,0.09,0.78c0.09,0.56-0.03,0.99-0.04,1.55s-0.04,1.33-0.49,1.76
				c-0.23,0.21-0.79,0.42-1.12,0.41c-0.66-0.02-1.43-0.37-1.75-0.82l-2.56-3.61c-3.52-4.96-0.4-1.45-3.39-5.96l-2.77-4.17
				c-1.06-1.58-0.84-1.68-3.6-6.18c-0.42-0.67-0.95-1.57-2.15-2.38c-1.52-1.15-2.95-1.29-5.17-1.35c-6.31-0.17-4.56,0.66-13.06-0.01
				c-2.65-0.18-5.85-0.7-7.43,0.69c-0.68,0.54-1.83,2.17-1.92,5.71c-0.1,3.98,1.16,6.34,0.84,10.09L-122.65-292.77z"/>
		</g>
	</g>
</g>
<g>
	<g transform="translate(730.792356, 516.887516)">
		<g>
			<path fill="#FAF1B3" d="M-101.96-292.23c-0.71,10.17-0.77,12.49-0.84,15.26l-0.22,12.51c-0.11,4.43-0.56,8.73-1.11,13.15
				c-0.12,0.55-0.14,1.21-0.16,1.77c-0.04,1.55,0.37,2.89,1.01,3.68c0.54,0.68,1.73,1.48,3.28,1.53l8.74,0.11
				c2.21,0.06,2.32,0.28,11.28,0.52c2.1,0.06,2.88-0.15,3.79-0.9c0.68-0.54,1.14-1.19,1.18-2.62c0.02-0.67-0.08-1.22-0.17-1.89
				c-0.09-0.78-0.18-1.66-0.16-2.44c0.01-0.11,0.01-0.33,0.02-0.78l0.05-1.99l0.16-1.77c0.18-2.43,0.19-2.98,0.19-3.21l-0.13-3.32
				c-0.15-2.99,0.32-3.86,0.44-4.19c0.47-0.98,0.92-1.31,1.36-1.3c0.55,0.02,1.43,0.48,1.85,0.94c0.76,0.68,0.85,1.35,1.71,2.48
				l0.75,1.02c1.82,2.48,0.51,1.56,3.3,4.95c2.58,3.06,2.24,3.05,3.41,4.96c2.87,4.72,3.3,5.07,3.84,5.63
				c1.83,1.93,2.68,3.61,4.42,4.66c0.98,0.58,1.97,0.71,5.18,0.8l0.89,0.03c1.33,0.03,2.33-0.05,4.32-0.11
				c1.55-0.07,2.21-0.05,3.21-0.03l2.1,0.05c0.55,0.02,0.88,0.14,1.77,0.27c1.1,0.03,1.43,0.15,1.98,0.17c0.11,0,0.11,0,0.22,0.01
				c0.78,0.02,1.55-0.07,3.01-0.92c0.91-0.75,1.48-1.73,1.63-2.94c0.01-0.22,0.01-0.56,0.02-0.78c0.01-0.11,0.01-0.22,0.01-0.33
				c0.03-1.1-0.28-2-0.35-3.55l-0.05-2.32c0.01-0.11,0.01-0.11,0.01-0.22c0.05-1.99,0.1-3.98,0.16-5.97
				c0.09-3.54,0.41-7.07,0.5-10.61c0.01-0.22,0.01-0.33,0.01-0.56c0.03-0.89-0.06-1.99-0.09-5.09c-0.15-2.88-0.23-3.66-0.21-4.66
				c0.06-2.43,0.39-2.31,0.59-5.85c0.02-0.66,0.03-1.22,0.05-1.88c0.03-0.89,0.16-1.88,0.18-2.77c0.05-1.66-0.12-3.54-0.08-5.42
				c0.02-0.78,0.04-1.55,0.06-2.32c0.28-6.64,0.95-6.73,0.94-10.71c0.05-1.88-0.11-3.99-1.62-5.58c-1.29-1.36-2.94-1.85-5.26-1.91
				c-0.44-0.02-0.78-0.02-1.22-0.04c-0.99-0.03-1.77-0.04-3.98,0.01l-1.78,0.06c-0.22-0.01-0.55-0.02-1.77-0.05
				c-0.56-0.01-1.1-0.14-1.66-0.15c-1.22-0.14-2.54-0.29-3.76-0.32l-1.88-0.05c-1.32-0.03-2.67,0.38-3.11,0.58
				c-0.89,0.31-2.58,1.48-2.77,4.36c-0.01,0.22-0.02,0.55-0.02,0.77c-0.03,1.22,0.24,3.22,0.19,5.21l-0.16,6.31
				c-0.02,0.55-0.14,1.21-0.05,1.77c-0.01,0.22,0.1,0.55,0.09,0.78c0.09,0.56-0.03,0.99-0.04,1.55c-0.02,0.55-0.04,1.33-0.49,1.76
				c-0.23,0.21-0.79,0.42-1.12,0.41c-0.66-0.02-1.43-0.37-1.75-0.82l-2.56-3.61c-3.52-4.96-0.4-1.45-3.39-5.96l-2.77-4.17
				c-1.06-1.58-0.84-1.68-3.6-6.18c-0.42-0.67-0.95-1.57-2.15-2.38c-1.52-1.15-2.95-1.29-5.17-1.35c-6.31-0.17-4.56,0.66-13.06-0.01
				c-2.65-0.18-5.85-0.7-7.43,0.69c-0.68,0.54-1.83,2.17-1.92,5.71c-0.1,3.98,1.16,6.34,0.84,10.09L-101.96-292.23z"/>
		</g>
	</g>
</g>
<g>
	<g transform="translate(792.849541, 518.500748)">
		<g>
			<path fill="#FAF1B3" d="M-53.03-317.86c-5.67,0.73-11.27,3.25-12.95,4.09c-2.13,1.05-4.4,3.1-8.25,6.43
				c-3.4,2.9-2.91,1.36-7.23,10.11c-1.29,2.62-2.2,3.48-2.74,7.34c-1.06,6.84-1.48,10.26-1.56,13.14c-0.11,4.09,0.41,5.66,1.11,8.33
				c1.91,7.47-1.27,2.07,8.37,14.5c2.46,3.16,6.91,6.71,10.62,8.58c3.49,1.75,10.53,3.93,23.24,4.26c2.66,0.07,8.21-0.67,11.33-1.47
				c1.78-0.51,3.46-1.24,5.24-1.74c1.11-0.31,2.34-0.6,3.35-1.02c1.68-0.73,9.23-5.85,10.48-7.04c2.72-2.58,3.59-6.1,5.35-9.93
				c2.45-5.03,2.92-5.79,3.11-9.11c0.03-1.1,0.06-2.21,0.2-3.31c0.16-1.88,0.65-3.86,0.7-5.74c0.13-4.98-1.38-10.77-2.63-13.91
				c-1.87-4.7-5.09-8.43-8.09-12.28c-1.71-2.15-2.36-2.83-6.63-4.71c-7.66-3.41-11.26-5.39-14.45-6.02
				c-1.32-0.26-7.72-1.09-9.71-1.14C-45.04-318.53-47.37-318.6-53.03-317.86z M-56.88-284.75c0.47-1.09,1.63-2.95,2.65-3.81
				c1.02-0.86,2.47-1.15,3.59-1.68c1.12-0.53,2.58-1.38,3.47-1.68c0.67-0.2,1.89-0.28,2.44-0.27c2.43,0.06,6.71,1.72,8.78,2.88
				c1.2,0.7,2.5,1.84,3.55,3.97c0.63,1.12,1.56,3.69,1.5,6.02c-0.03,1.11-0.4,2.76-1.21,4.18c-0.81,1.31-3.66,4.33-4.79,5.3
				c-2.04,1.83-3.81,1.56-5.69,1.62c-1.22,0.08-2.99,0.26-4.21,0.22c-2.77-0.07-4.4-1-5.49-1.69c-2.29-1.5-2.29-1.61-5.15-6.33
				c-0.32-0.45-0.95-1.57-0.89-4.23C-58.31-281.13-57.35-283.76-56.88-284.75z"/>
		</g>
	</g>
</g>
<g>
	<g transform="translate(854.657786, 520.107509)">
		<g>
			<path fill="#FAF1B3" d="M-63.87-304.52c0.52,1.23,1.12,3.57,1.81,6.91c1.07,5.78,1.65,9.12,1.95,10.12
				c0.9,3.56,1.82,6.58,2.86,9.15c1.78,4.14,2.7,7.04,2.99,8.6c0.48,2.78,0.66,4.45,0.76,4.78c0.1,0.56,0.82,2.46,1.96,5.58
				l0.98,4.68l1.04,2.46l1.01,4.01c0.52,1.45,1.15,2.8,2,3.93c0.96,1.24,2.83,1.84,5.48,1.91c0.67,0.02,1.22,0.03,1.66-0.07
				c2-0.17,3.22-0.24,3.77-0.23l1.66,0.05c3.64,0.43,6.4,0.72,8.17,0.77c1.1,0.03,2.55-0.05,4.32-0.22l5.2,0.02
				c0.55,0.02,1.33-0.07,2.11-0.28c1.01-0.31,1.69-1.29,2.28-2.71c0.97-3.18,1.93-5.82,2.76-7.9c1.29-2.73,2.13-5.26,2.52-7.69
				c0.51-2.42,0.88-3.96,1.11-4.51c0.23-0.55,1.06-2.3,2.58-5.46l1.33-4.17l3.08-7.78l1.56-4.61c1.66-4.28,2.61-6.8,2.75-7.79
				c0.53-3.2,0.91-5.07,1.03-5.62l2.86-7.79c0.36-0.98,0.61-2.09,0.64-3.19c0.03-0.99-0.17-1.78-0.71-2.34
				c-0.74-1.02-1.84-1.6-3.39-1.75l-1.99-0.05l-3.1,0.03l-4.76-0.34l-3.88,0.34l-5.97-0.27c-0.77-0.02-1.56,0.29-2.57,0.82
				c-0.79,0.53-1.47,1.18-1.93,2.05c-0.35,0.66-0.84,2.53-1.59,5.71c-0.27,1.88-0.41,2.98-0.42,3.42c-0.13,0.88-0.84,2.64-1.91,5.38
				c-0.47,1.32-1.2,3.84-2.19,7.69l-2.25,5.7c-0.11,0.1-0.49,1.98-1.36,5.39c-0.12,0.55-0.46,0.88-0.91,0.86
				c-0.33-0.01-0.55-0.23-0.76-0.57c-0.1-0.22-0.49-2.34-1.16-6.45l-2.41-9.58c-0.36-3.1-0.64-5.1-0.84-5.99
				c-0.3-1.23-0.8-3.23-1.73-5.92l-0.6-2.56c-0.39-1.9-1.12-3.46-2.2-4.82c-0.97-1.14-2.17-1.72-3.83-1.76l-0.55-0.02
				c-2.11,0.17-3.44,0.24-3.99,0.23c-0.44-0.01-1.77-0.16-4.08-0.44l-4.65-0.01c-0.11-0.01-0.77-0.02-2.21-0.17
				c-0.77-0.14-1.55-0.15-2.54-0.18c-1.88-0.05-3.32,0.14-4.22,0.66c-1.23,0.74-1.82,2.06-1.88,4.16c-0.04,1.21,0.16,2.33,0.57,3.33
				L-63.87-304.52z"/>
		</g>
	</g>
</g>
<g>
	<g transform="translate(907.090995, 521.470558)">
		<g>
			<path fill="#FAF1B3" d="M-37.12-294.42c-2.26,5.81-2.07,7.25-2.82,10.66c-0.62,2.76-1.58,5.49-2.78,9.01
				c-1.31,3.73-1.32,4.06-2.04,6.15c-0.35,0.88-1.06,2.63-1.67,4.49c-1.43,4.06-1.93,6.26-2.3,7.58c-0.61,2.2-1.07,2.85-1.55,4.05
				c-0.36,0.99-0.61,2.09-0.64,3.19c-0.06,2.44,0.67,4.01,1.54,4.8c1.83,1.82,5.05,1.46,7.59,1.64l6.52,0.39l2.32,0.06
				c4.43,0.11,1.45-0.3,5.2-0.09c0.56,0.02,1.1,0.14,1.66,0.05c0.56-0.1,1.67-0.51,2.13-0.94c0.45-0.32,0.69-0.98,1.73-2.72
				l1.85-3.05c0.11-0.1,0.23-0.32,0.34-0.43c0.11-0.11,0.12-0.22,0.23-0.33c0.69-0.86,2.02-0.94,3.02-0.92
				c0.66,0.02,0.99,0.14,3.31,0.31l3.76,0.32c2.98,0.3,5.55-0.74,8.18,0.33c1.86,0.71,2.39,1.94,3.02,3.29l0.83,1.9
				c0.94,2.24,2.25,2.94,3.02,3.18c1.32,0.36,4.32-0.11,8.96,0.12l6.75,0.29c0.44,0.01,0.77,0.02,1.21,0.03
				c0.44,0.01,0.89,0.14,1.32,0.15c0.33,0.01,0.56,0.02,0.89,0.02c3.1-0.03,3.79-0.79,4.36-1.77c0.81-1.2,0.7-1.42,0.72-2.31
				c0.01-0.22,0.02-0.55,0.02-0.78c0.01-0.44-0.28-1.89-0.69-3.11c-0.32-0.67-0.52-1.23-0.83-2.35c-0.2-0.67-0.41-1.22-0.51-1.78
				c-0.9-3.57-1.25-7.23-2.38-10.8l-0.61-2.01c-1.11-3.79-1.42-5.02-2-8.24c-1.17-6.01-1.37-6.9-1.57-7.68l-0.41-1.23
				c-0.61-1.9-0.41-1.45-0.82-2.35c-0.11-0.22-0.21-0.45-0.32-0.67c-0.09-0.56-0.2-0.78-0.69-3.23l-0.99-4.45
				c-0.49-2.22-1.32-4.46-2.15-6.58c-0.52-1.34-1.04-2.8-1.33-4.24l-0.5-2.22c-0.7-2.9-1.3-5.46-3.25-6.95
				c-2.06-1.6-4.93-1.9-6.37-1.94c-1.1-0.03-2.32,0.05-3.43,0.02c-1.44-0.04-5.42-0.14-7.19-0.3l-1.88-0.16l-3.43-0.2
				c-0.89-0.02-1.66,0.07-2.55,0.04c-0.78-0.02-1.66,0.07-2.44,0.05c-4.66,0.21-0.44-0.23-6.2-0.16c-2.21,0.05-4.09,0.11-5.67,1.18
				c-2.03,1.39-3.09,4.02-3.34,4.79c-1.43,4.06-2.8,9.67-3.62,11.86L-37.12-294.42z M-12.86-274.08c-0.66-0.02-1.54-0.15-2.07-1.05
				c-0.32-0.56-0.29-1.56-0.28-1.89c0.02-0.89,0.47-1.21,0.96-3.19c0.37-1.32,0.51-2.53,0.87-3.63c0.36-1.09,0.84-2.3,1.44-4.06
				c0.24-0.88,0.6-2.09,1.17-2.52c0.11-0.11,0.68-0.54,1.34-0.52c0.44,0.02,0.99,0.14,1.43,0.59c0.43,0.45,0.96,1.46,1.16,2.02
				c0.31,1.01,1.71,6.69,1.9,7.8l0.59,2.9c0.2,0.89,0.4,1.78-0.29,2.65c-0.69,0.76-1.69,1.06-5.56,0.96L-12.86-274.08z"/>
		</g>
	</g>
</g>
<g>
	<g transform="translate(961.10053, 522.874584)">
		<g>
			<path fill="#FAF1B3" d="M-30.4-298.67c-0.17,2.43,0.36,3.33,0.68,3.78c0.96,1.47,1.73,1.71,6.36,2.27l2.54,0.29
				c1.1,0.14,2.21,0.06,3.18,1.08c0.86,0.8,1.59,2.59,1.43,4.47l-0.52,7.4c-0.03,1.22,0.18,1.44,0.12,3.66
				c-0.02,0.89-0.05,1.88-0.46,4.86c-0.72,6.29-0.26,5.75-0.31,7.52l-0.05,6.2c-0.1,8.3-0.43,3.75-0.59,10.06
				c-0.03,0.89-0.05,1.88,1.24,3.35c1.07,1.24,2.17,1.71,4.49,1.78c2.21,0.06,1.33-0.08,3.99-0.01l4.76,0.12
				c3.98,0.1,5.08,0.35,7.18,0.41c4.32,0.11,4.77-0.1,6.24-1.61c1.14-1.19,1.48-1.84,1.53-3.72c0.03-1.11-0.17-1.89-0.27-2.55
				c-0.19-1.01-0.38-2.34-0.34-3.78l0.28-10.51c0.12-4.76,0.1-8.3,0.62-11.39c0.13-0.66,0.27-1.76,0.3-2.98
				c0.03-1.1-0.18-1.55-0.09-5.09c0.09-3.54,0.27-5.97,2.18-7.36c1.35-0.96,3.46-1.24,5.23-1.19c1.99,0.05,1.87,0.38,4.19,0.44
				c1.55,0.04,2.45-0.38,2.9-0.7c1.24-1.07,1.28-2.18,1.29-2.84c0.06-2.32-0.1-4.54-0.15-6.86c0.03-1-0.06-1.89,0.07-2.88
				c0.14-1.21,0.53-3.42,0.58-5.41c0.04-1.33-0.26-2.99-1.56-3.92c-1.19-0.92-3.83-1.54-6.6-1.61c-8.3-0.21-4.99,0.54-10.64,0.28
				l-15.15-0.72c-3.76-0.21-3.66,0.12-7.75,0.02l-1.88-0.05c-0.44-0.01-1.11-0.03-3.31-0.31c-1.66-0.15-3.53-0.53-5.3-0.58
				c-0.66-0.02-3.32-0.09-4.68,1.09c-1.12,0.86-1.51,2.73-1.55,4.28c-0.02,0.67,0.03,2.99,0.11,3.99c0.1,0.45,0.09,0.67,0.08,1.11
				l-0.05,2.1L-30.4-298.67z"/>
		</g>
	</g>
</g>
<g>
	<g transform="translate(1004.324861, 523.99824)">
		<g>
			<path fill="#FAF1B3" d="M-11.01-302.37c-0.03,1.1,0.06,1.77,0.02,3.54c-0.04,1.33-0.18,2.54-0.21,3.87
				c-0.03,1.1-0.06,2.1-0.08,3.21l-0.3,11.61c-0.16,6.3,0.49,6.43,0.04,11.29c-0.16,1.99-0.44,4.19-0.49,6.3l-0.11,4.2
				c-0.08,3.1,0.12,3.77-0.05,6.31c-0.16,1.88-0.42,3.31-0.46,4.97c-0.05,1.99,0.15,2.99,0.9,3.79c1.18,1.25,3.6,1.76,5.16,1.69
				l7.53-0.14l5.31,0.14c0.44,0.01,0.99,0.14,1.43,0.15c0.56,0.02,1.22,0.04,1.77,0.05c0.67,0.02,1.44,0.15,2.1,0.17
				c0.99,0.03,2.66,0.07,4.13-1.11c1.24-0.96,1.51-2.73,1.65-3.61c0.01-0.33,0.02-0.67,0.03-1c-0.07-1.44-0.11,0-0.37-2.78
				c-0.17-1.99-0.36-3.22-0.33-4.43c0.04-1.66,0.31-3.32,0.46-4.97c0.02-0.77,0.04-1.55,0.06-2.32c0.01-0.22,0.01-0.44,0.02-0.66
				c0.12-4.54-0.24-3.33-0.16-6.76l0.25-9.52c0.04-1.44,0.18-2.65,0.31-3.42c0.14-0.89,0.45-4.53,0.48-5.74
				c0.1-3.98-0.45-8.2-0.27-10.97l0.32-3.76c0.02-0.77,0.27-1.76,0.31-3.53c0.02-0.55,0.04-1.22,0.05-1.77
				c0.06-2.1,0.12-4.76-2.04-6.58c-2.17-1.72-5.93-1.7-8.59-1.55l-2.11,0.17c-0.67,0.09-3.1,0.25-4.65,0.21
				c-3.1-0.08-4.41-0.67-6.73-0.72c-2.1-0.06-3,0.36-3.79,1.11c-1.14,1.08-1.72,2.28-1.66,4.28L-11.01-302.37z"/>
		</g>
	</g>
</g>
<g>
	<g transform="translate(1033.362305, 524.753094)">
		<g>
			<path fill="#FAF1B3" d="M27.14-315.77c-5.67,0.73-11.27,3.25-12.95,4.09c-2.13,1.05-4.4,3.1-8.25,6.43
				c-3.4,2.9-2.91,1.36-7.23,10.11c-1.29,2.62-2.2,3.48-2.74,7.34c-1.06,6.84-1.48,10.26-1.56,13.14c-0.11,4.09,0.41,5.66,1.11,8.33
				c1.91,7.47-1.27,2.07,8.37,14.5c2.46,3.16,6.91,6.71,10.62,8.58c3.49,1.75,10.53,3.93,23.24,4.26c2.66,0.07,8.21-0.67,11.33-1.47
				c1.78-0.51,3.46-1.24,5.24-1.74c1.11-0.31,2.34-0.6,3.35-1.02c1.68-0.73,9.23-5.85,10.48-7.04c2.72-2.58,3.59-6.1,5.35-9.93
				c2.45-5.03,2.92-5.79,3.11-9.11c0.03-1.1,0.06-2.21,0.2-3.31c0.16-1.88,0.65-3.86,0.7-5.74c0.13-4.98-1.38-10.77-2.63-13.91
				c-1.87-4.7-5.09-8.43-8.09-12.28c-1.71-2.15-2.36-2.83-6.63-4.71c-7.66-3.41-11.26-5.39-14.45-6.02
				c-1.32-0.26-7.72-1.09-9.71-1.14C35.13-316.45,32.8-316.51,27.14-315.77z M23.29-282.66c0.47-1.09,1.63-2.95,2.65-3.81
				c1.02-0.86,2.47-1.15,3.59-1.68s2.58-1.38,3.47-1.68c0.67-0.2,1.89-0.28,2.44-0.27c2.43,0.06,6.71,1.72,8.78,2.88
				c1.2,0.7,2.5,1.84,3.55,3.97c0.63,1.12,1.56,3.69,1.5,6.02c-0.03,1.11-0.4,2.76-1.21,4.18c-0.81,1.31-3.66,4.33-4.79,5.3
				c-2.04,1.83-3.81,1.56-5.69,1.62c-1.22,0.08-2.99,0.26-4.21,0.22c-2.77-0.07-4.4-1-5.49-1.69c-2.29-1.5-2.29-1.61-5.15-6.33
				c-0.32-0.45-0.95-1.57-0.89-4.23C21.87-279.05,22.82-281.68,23.29-282.66z"/>
		</g>
	</g>
</g>
<g>
	<g transform="translate(1097.32772, 526.415933)">
		<g>
			<path fill="#FAF1B3" d="M20.22-289.06c-0.71,10.17-0.77,12.49-0.84,15.26l-0.22,12.51c-0.11,4.43-0.56,8.73-1.11,13.15
				c-0.12,0.55-0.14,1.21-0.16,1.77c-0.04,1.55,0.37,2.89,1.01,3.68c0.54,0.68,1.73,1.48,3.28,1.53l8.74,0.11
				c2.21,0.06,2.32,0.28,11.28,0.52c2.1,0.06,2.88-0.15,3.79-0.9c0.68-0.54,1.14-1.19,1.18-2.62c0.02-0.67-0.08-1.22-0.17-1.89
				c-0.09-0.78-0.18-1.66-0.16-2.44c0.01-0.11,0.01-0.33,0.02-0.78l0.05-1.99l0.16-1.77c0.18-2.43,0.19-2.98,0.19-3.21l-0.13-3.32
				c-0.15-2.99,0.32-3.86,0.44-4.19c0.47-0.98,0.92-1.31,1.36-1.3c0.55,0.02,1.43,0.48,1.85,0.94c0.76,0.68,0.85,1.35,1.71,2.48
				l0.75,1.02c1.82,2.48,0.51,1.56,3.3,4.95c2.58,3.06,2.24,3.05,3.41,4.96c2.87,4.72,3.3,5.07,3.84,5.63
				c1.83,1.93,2.68,3.61,4.42,4.66c0.98,0.58,1.97,0.71,5.18,0.8l0.89,0.03c1.33,0.03,2.33-0.05,4.32-0.11
				c1.55-0.07,2.21-0.05,3.21-0.03l2.1,0.05c0.55,0.02,0.88,0.14,1.77,0.27c1.1,0.03,1.43,0.15,1.98,0.17c0.11,0,0.11,0,0.22,0.01
				c0.78,0.02,1.55-0.07,3.01-0.92c0.91-0.75,1.48-1.73,1.63-2.94c0.01-0.22,0.01-0.56,0.02-0.78c0.01-0.11,0.01-0.22,0.01-0.33
				c0.03-1.1-0.28-2-0.35-3.55l-0.05-2.32c0.01-0.11,0.01-0.11,0.01-0.22c0.05-1.99,0.1-3.98,0.16-5.97
				c0.09-3.54,0.41-7.07,0.5-10.61c0.01-0.22,0.01-0.33,0.01-0.56c0.03-0.89-0.06-1.99-0.09-5.09c-0.15-2.88-0.23-3.66-0.21-4.66
				c0.06-2.43,0.39-2.31,0.59-5.85c0.02-0.66,0.03-1.22,0.05-1.88c0.03-0.89,0.16-1.88,0.18-2.77c0.05-1.66-0.12-3.54-0.08-5.42
				c0.02-0.78,0.04-1.55,0.06-2.32c0.28-6.64,0.95-6.73,0.94-10.71c0.05-1.88-0.11-3.99-1.62-5.58c-1.29-1.36-2.94-1.85-5.26-1.91
				c-0.44-0.02-0.78-0.02-1.22-0.04c-0.99-0.03-1.77-0.04-3.98,0.01l-1.78,0.06c-0.22-0.01-0.55-0.02-1.77-0.05
				c-0.56-0.01-1.1-0.14-1.66-0.15c-1.22-0.14-2.54-0.29-3.76-0.32l-1.88-0.05c-1.32-0.03-2.67,0.38-3.11,0.58
				c-0.89,0.31-2.58,1.48-2.77,4.36c-0.01,0.22-0.02,0.55-0.02,0.77c-0.03,1.22,0.24,3.22,0.19,5.21l-0.16,6.31
				c-0.02,0.55-0.14,1.21-0.05,1.77c-0.01,0.22,0.1,0.55,0.09,0.78c0.09,0.56-0.03,0.99-0.04,1.55c-0.02,0.55-0.04,1.33-0.49,1.76
				c-0.23,0.21-0.79,0.42-1.12,0.41c-0.66-0.02-1.43-0.37-1.75-0.82L59.56-295c-3.52-4.96-0.4-1.45-3.39-5.96l-2.77-4.17
				c-1.06-1.58-0.84-1.68-3.6-6.18c-0.42-0.67-0.95-1.57-2.15-2.38c-1.52-1.15-2.95-1.29-5.17-1.35c-6.31-0.17-4.56,0.66-13.06-0.01
				c-2.65-0.18-5.85-0.7-7.43,0.69c-0.68,0.54-1.83,2.17-1.92,5.71c-0.1,3.98,1.16,6.34,0.84,10.09L20.22-289.06z"/>
		</g>
	</g>
</g>
<g>
	<g transform="translate(1159.393965, 528.029401)">
	</g>
</g>
</svg>
